<svg id="Layer_1" data-name="Layer 1" xmlns="http://www.w3.org/2000/svg" viewBox="0 0 440 140"><defs><style>.cls-1{fill:#fff;}</style></defs><title>Artboard 1</title><path class="cls-1" d="M71.29,37.84c10.42,0,14,5.17,14,9.33,0,5.67-8.67,10.67-12.42,10.67a1.27,1.27,0,0,1-1.33-1.33c0-1.25,2.67-3.5,2.67-9.58,0-2-1-3.33-2.83-3.33-3.83,0-5.25,2.83-9,11.5-4.5,10.5-8.08,24.58-15.5,33.75,20,5.83,38.17,18.92,59.91,18.92,13.17,0,18.25-7.08,19.58-7.08.67,0,1.17.25,1.17,1.08,0,2.08-11.08,17.25-29,17.25C83.7,119,60,99.92,42.46,93.17A21.81,21.81,0,0,1,28.37,98c-4.17,0-8.08-2.67-8.08-6s4.08-6.08,8.5-6.08a56.93,56.93,0,0,1,7.58.58c6.25-7.83,9.42-17.42,15.08-31.92C54.54,46.67,60,37.84,71.29,37.84Z"/><path class="cls-1" d="M88.32,63.34c8.33,0,12.92,3.92,12.92,9.75,0,10.08-10,20.42-23.25,20.42-6.75,0-11.67-3.17-11.67-9.17,0-7.17,5.92-11.58,7.83-12.83a5.17,5.17,0,0,1-.08-1.08C74.07,66.75,80.91,63.34,88.32,63.34ZM80.07,87.5c4.5,0,9.67-10.92,9.67-16,0-2.08-.75-2.75-2.33-2.75-2.25,0-4.92,2.5-4.92,5.5,0,1.75.75,2.58.75,3.42a1.18,1.18,0,0,1-1.17,1.08,6.09,6.09,0,0,1-3.42-1.5,16.32,16.32,0,0,0-1.25,6C77.41,86.25,78.41,87.5,80.07,87.5Z"/><path class="cls-1" d="M111.69,84.33c0,1,.5,1.5,1.42,1.5,4.83,0,10.58-13.08,10.58-20.92,0-.83.58-1.42,1.75-1.42,4.83,0,9.58,3.42,9.58,6.08s-6.25,11.5-6.25,18.92c0,2.92.58,3,.58,4.08,0,.58-.42,1-1.25,1-6.75,0-9.33-4.67-9.92-4.67-.92,0-5.42,4.67-12.42,4.67-3.92,0-7-2.25-7-6.58,0-6,6.75-15.42,6.75-22.08,0-.83.83-1.42,2.42-1.42,4.08,0,8.17,3.67,8.17,7.08C116.11,74.92,111.69,80.17,111.69,84.33Z"/><path class="cls-1" d="M141.65,91.58c0,1.25-.25,2-1.58,2-3.92,0-9.33-1-9.33-4,0-6,8.33-18,8.33-24.67,0-.83.75-1.42,2.33-1.42,5,0,8.08,3.75,8.08,6.08C149.48,74.42,141.65,85.25,141.65,91.58ZM151.32,47c3,0,5.25,1.92,5.25,5,0,4.25-3.25,8.25-7.08,8.25-2.92,0-5.5-1.92-5.5-4.92C144,51,147.23,47,151.32,47Z"/><path class="cls-1" d="M174.31,82.17a1.45,1.45,0,0,1,1.33,1.42c0,1.5-4.75,10.17-17.83,10.17-5.67,0-10.42-3.42-10.42-9.5,0-10.33,11.25-20.75,22.67-20.75,6.42,0,8.92,3.33,8.92,6.58,0,6.42-10.5,11.75-18,13.17.5,1.75,1.83,2.75,4.25,2.75C170.89,86,173.06,82.17,174.31,82.17ZM161.06,78.5c5.42-1.5,9.92-5.42,9.92-8a1.27,1.27,0,0,0-1.42-1.42C166.89,69.08,162.39,73.42,161.06,78.5Z"/><path class="cls-1" d="M184,42.92c3,0,4.42,1.67,4.42,4.5,0,6-7.67,12.33-9.33,12.33a1.1,1.1,0,0,1-1.25-1.08c0-1.5,2.67-3.25,2.67-7.42,0-1.5-.92-2.17-.92-3.92A4.2,4.2,0,0,1,184,42.92Z"/><path class="cls-1" d="M201.7,75.33c-.92,0-1.08-.5-1.33-1.67-.42-1.75-1.42-3.75-3.33-3.75a1.77,1.77,0,0,0-1.92,1.83c0,4.25,9.67,5.58,9.67,11.92,0,5.75-4.83,9.83-14.58,9.83-8.5,0-13-4.42-13-6.67,0-2.42,4.92-6.08,7.75-6.08,1.17,0,1.5.5,1.67,1.17.58,2.83,2.5,4.83,4.33,4.83a1.63,1.63,0,0,0,1.75-1.58c0-5.33-10.17-6.08-10.17-12.33,0-5.58,6.75-9.33,15.25-9.33,6.83,0,10.75,3.33,10.75,6.25C208.53,71.92,203.78,75.33,201.7,75.33Z"/><path class="cls-1" d="M253.72,43.67c-8,1.08-18.5,5.58-18.5,14.5,0,5.25,2.08,6.42,2.08,7.33,0,.5-.42.83-1.33.83-4,0-12.25-3.92-12.25-11.58,0-11.17,13.92-16.92,34-16.92,14.08,0,27.5,4.5,27.5,17.83,0,9.25-8,17.42-18.58,17.42-5.58,0-9.67-3.33-9.67-5.5a.91.91,0,0,1,.83-.92c.58,0,1.75.83,3.67.83,5.75,0,11.83-6,11.83-14.92,0-6.25-4.33-8.83-8-8.83-1.17,0-2,1.25-3.17,4-5.75,13.08-12.5,28.25-15.75,44.16-.33,1.5-.67,2.42-2,2.42-3.92,0-10.42-1-10.42-4,0-3.83,10.42-32.67,15.42-41.75C251.47,44.84,253.47,43.84,253.72,43.67Z"/><path class="cls-1" d="M287.25,91.58c0,1.25-.25,2-1.58,2-3.92,0-9.33-1-9.33-4,0-6,8.33-18,8.33-24.67,0-.83.75-1.42,2.33-1.42,5,0,8.08,3.75,8.08,6.08C295.08,74.42,287.25,85.25,287.25,91.58ZM296.92,47c3,0,5.25,1.92,5.25,5,0,4.25-3.25,8.25-7.08,8.25-2.92,0-5.5-1.92-5.5-4.92C289.58,51,292.83,47,296.92,47Z"/><path class="cls-1" d="M317.82,65.17c3.5,0,5.17-.92,6.25-.92a1.2,1.2,0,0,1,1.25,1.33c0,.67-2,7.67-6.08,11.17-4.83,4.17-13.67,7.17-13.67,8.42,0,.33.25.5.58.5,12.5,0,13.08-2.67,14.5-2.67.58,0,1,.58,1,1.58,0,4.25-3.92,9.33-10.25,9.33-4.5,0-8.67-1.92-12.83-1.92-2.67,0-4.67.92-5.75.92-.67,0-.92-.75-.92-1.33,0-4.58,1.08-7.83,5-10.83,3.67-2.83,15.08-7.17,15.08-7.67a.39.39,0,0,0-.42-.42c-11.92,0-11.83,1.42-13.42,1.42-.58,0-.92-.42-.92-1.17,0-5,3.33-9.42,7.67-9.42C308.65,63.5,313.07,65.17,317.82,65.17Z"/><path class="cls-1" d="M346.4,65.17c3.5,0,5.17-.92,6.25-.92a1.2,1.2,0,0,1,1.25,1.33c0,.67-2,7.67-6.08,11.17-4.83,4.17-13.67,7.17-13.67,8.42,0,.33.25.5.58.5,12.5,0,13.08-2.67,14.5-2.67.58,0,1,.58,1,1.58,0,4.25-3.92,9.33-10.25,9.33-4.5,0-8.67-1.92-12.83-1.92-2.67,0-4.67.92-5.75.92-.67,0-.92-.75-.92-1.33,0-4.58,1.08-7.83,5-10.83,3.67-2.83,15.08-7.17,15.08-7.67a.39.39,0,0,0-.42-.42c-11.92,0-11.83,1.42-13.42,1.42-.58,0-.92-.42-.92-1.17,0-5,3.33-9.42,7.67-9.42C337.23,63.5,341.65,65.17,346.4,65.17Z"/><path class="cls-1" d="M385.62,95.92c-12.25,0-16.75-7-16.75-7-1,0-6.08,4.67-12.83,4.67-4.25,0-6.92-2.83-6.92-7.5,0-10.83,11-22.58,24.58-22.58,7.17,0,12.33,4.17,12.33,6.08,0,1.58-6.5,9-6.5,16.75,0,3,2.25,5.5,6.5,5.5,13.75,0,23-15.58,23-27.25,0-11.83-6.83-16-17.83-16-15.08,0-29.58,7.75-48.5,7.75-10.25,0-18.17-5.5-18.17-14.42,0-13.75,17.25-19.83,21.92-19.83.58,0,1.17.17,1.17.67s-.5,1-1.17,1.33c-3.33,1.83-10,5.5-10,14.42,0,7,3.5,11.83,16,11.83,15.17,0,30.33-8.33,47.33-8.33,10.25,0,20.5,4.92,20.5,17.33C420.29,78.42,402.37,95.92,385.62,95.92ZM361.21,84.08a1.4,1.4,0,0,0,1.5,1.5C367.13,85.58,374,72,374,70.17c0-.75-.33-1.08-1-1.08C368.79,69.08,361.21,78.67,361.21,84.08Z"/><path class="cls-1" d="M135.43,115.09a48.26,48.26,0,0,1,4-7.57,1.51,1.51,0,0,1-.71-.88c-.05-.25.14-.35.41-.35a16.89,16.89,0,0,0,2.76-.25,11.28,11.28,0,0,1,1.56-.18,1.35,1.35,0,0,1,1.49.92c.07.19-.05.35-.39.35a14.7,14.7,0,0,0-2.67.34c-.27.05-.44.09-.71.12-.58.88-1.4,2.35-2.23,3.86.37-.05.67-.07.92-.09,1,0,1.43.28,1.63.85.09.23.05.41-.35.41a13.81,13.81,0,0,0-3.06.46c-.5.94-.87,1.66-1.22,2.46a15.4,15.4,0,0,1,2.41-.42c1,0,1.45.25,1.66.83.09.25,0,.39-.34.39a18.38,18.38,0,0,0-3.8.71c-.43.12-.71.12-.94-.21-.12-.18-.25-.46-.44-.78S135.25,115.59,135.43,115.09Z"/><path class="cls-1" d="M145.22,114.17a2.4,2.4,0,0,1,.55-.05,2.18,2.18,0,0,1,1.38.44A5.41,5.41,0,0,0,150,116a1.35,1.35,0,0,0,.94-.28.48.48,0,0,0,0-.74c-1.27-1-3.73-1.95-3.73-3.75,0-2.41,2.76-4.51,4.35-5.18a3.18,3.18,0,0,1,1.36-.3,1.63,1.63,0,0,1,1.08.37,3.33,3.33,0,0,1,.94,1.52,2.4,2.4,0,0,1-.53,1.82,22.33,22.33,0,0,0-1.18,1.91c-.16.28-.35.42-.69.07a1.3,1.3,0,0,1-.42-1,3.48,3.48,0,0,1,.81-1.84c.44-.65.92-1.43.67-1.61-.65-.48-4.53,2.12-4.62,4.16-.05,1.17,2.37,2.18,3.06,2.67a1.15,1.15,0,0,1,.53.9,2.36,2.36,0,0,1-.69,1.41,3.16,3.16,0,0,1-2.39.9,6.2,6.2,0,0,1-4.4-2.33C144.85,114.45,145,114.26,145.22,114.17Z"/><path class="cls-1" d="M157.76,115.11a40.46,40.46,0,0,1,3.78-7.46,5.73,5.73,0,0,1-.76.07c-1.15,0-1.91-.41-2.1-1.1-.05-.23.09-.34.34-.34,1.54,0,4.37-.48,5.39-.48.81,0,1.56.21,1.82,1,.09.21,0,.42-.39.39a11,11,0,0,0-2.74.23,7.51,7.51,0,0,1-1.26,3c-.92,1.66-2.19,4-3.22,6.33-.14.32-.35.34-.6.09a1.2,1.2,0,0,1-.37-1A2.52,2.52,0,0,1,157.76,115.11Z"/><path class="cls-1" d="M166.6,115.83a1.05,1.05,0,0,1,1.24-.67c.42.14.57.65.35,1.17A1.06,1.06,0,0,1,167,117,.87.87,0,0,1,166.6,115.83Z"/><path class="cls-1" d="M180.56,115.16a63.24,63.24,0,0,1,3.27-6.76c-.87,0-.71-.35-.5-.55.51-.51,1.06-1,1.57-1.59.32-.28.55-.34.8-.09a1.17,1.17,0,0,1,.46.9,3.62,3.62,0,0,1-.53,1.59c-2,3.63-3.34,6.17-4.3,8.42a.38.38,0,0,1-.65.11,1.38,1.38,0,0,1-.3-.94A3.56,3.56,0,0,1,180.56,115.16Z"/><path class="cls-1" d="M189.75,116.31c.85.25,2.23-.85,3.48-3.22a2.93,2.93,0,0,1-1,.16,3,3,0,0,1-1.18-.27,2.33,2.33,0,0,1-1.27-2.14,4.77,4.77,0,0,1,.69-2.32c.88-1.63,2.1-2.53,3.33-2.53a2.63,2.63,0,0,1,1.2.3,2.43,2.43,0,0,1,1.26,2.35,10.91,10.91,0,0,1-1.36,4.6c-1.31,2.67-2.76,4-4.58,4a2.19,2.19,0,0,1-2.48-2,1.89,1.89,0,0,1,.78-1.54c.34-.19.74-.27.64.21a5.38,5.38,0,0,0-.14,1.08C189.15,115.75,189.4,116.21,189.75,116.31Zm4.58-6.15a5.7,5.7,0,0,0,.48-2.16c0-.58-.12-.92-.3-1-.57-.28-1.79.8-2.56,2.25a5,5,0,0,0-.62,2.12c0,.53.14.87.39,1C192.44,112.67,193.66,111.85,194.33,110.16Z"/><path class="cls-1" d="M207.14,109.79a17.49,17.49,0,0,1-6,5.59,8.75,8.75,0,0,1,1.52-.19c1,0,1.52.32,1.73.92.09.23.07.39-.35.39a21.22,21.22,0,0,0-4.25.69c-.53.16-.81.09-1.06-.16a2.42,2.42,0,0,1-.46-.78c-.14-.35-.07-.55.34-.81,4.05-2.41,7.69-6,7.69-7.78,0-.51-.3-.73-.51-.73-.69,0-1.72,1.33-2.18,2-.56.87-1,1.26-1.91,1.2-.39,0-.42-.11-.32-.41a6.9,6.9,0,0,1,2.81-3.45,2.52,2.52,0,0,1,1.2-.3,2.12,2.12,0,0,1,1.54.62,2,2,0,0,1,.67,1.52A3.49,3.49,0,0,1,207.14,109.79Z"/><path class="cls-1" d="M211.44,116.31c.85.25,2.23-.85,3.48-3.22a2.93,2.93,0,0,1-1,.16,3,3,0,0,1-1.18-.27,2.33,2.33,0,0,1-1.27-2.14,4.77,4.77,0,0,1,.69-2.32c.88-1.63,2.1-2.53,3.33-2.53a2.63,2.63,0,0,1,1.2.3,2.43,2.43,0,0,1,1.26,2.35,10.91,10.91,0,0,1-1.36,4.6c-1.31,2.67-2.76,4-4.58,4a2.19,2.19,0,0,1-2.48-2,1.89,1.89,0,0,1,.78-1.54c.34-.19.74-.27.64.21a5.38,5.38,0,0,0-.14,1.08C210.84,115.75,211.09,116.21,211.44,116.31Zm4.58-6.15a5.7,5.7,0,0,0,.48-2.16c0-.58-.12-.92-.3-1-.57-.28-1.79.8-2.56,2.25a5,5,0,0,0-.62,2.12c0,.53.14.87.39,1C214.13,112.67,215.35,111.85,216,110.16Z"/><path class="cls-1" d="M230.6,112.39a1,1,0,0,1-1.33.55.78.78,0,0,1-.48-.74,1.26,1.26,0,0,1,.16-.57,1.18,1.18,0,0,1,1.35-.6.74.74,0,0,1,.48.74A1.22,1.22,0,0,1,230.6,112.39Z"/><path class="cls-1" d="M247.08,114.37c.21-1,.73-2.56,1.18-4-1.45,2-3.22,4.49-4.44,6.46a.49.49,0,0,1-.81.12,1.79,1.79,0,0,1-.67-1.47,4.92,4.92,0,0,1,.14-1,46.46,46.46,0,0,1,2.9-8.31c.25-.44.55-.46.78-.07a1.6,1.6,0,0,1,.23.87,7.64,7.64,0,0,1-.58,2.23c-.58,1.56-.94,2.28-1.59,4.49a87.06,87.06,0,0,1,5.38-7.3.41.41,0,0,1,.73,0,1.45,1.45,0,0,1,.34.94,4.59,4.59,0,0,1-.32,1.41c-.55,1.63-1,2.81-1.7,5.34,1.84-2.85,4.46-6,6.17-8.15.32-.39.62-.28.67.12.09.64-.12,1.45-1.91,3.75-1.4,1.8-3.45,4.44-5.08,7-.21.3-.48.41-.8.11a2.16,2.16,0,0,1-.73-1.56A4.83,4.83,0,0,1,247.08,114.37Z"/><path class="cls-1" d="M264.82,106.14a2.87,2.87,0,0,1,1.61,2.85,9,9,0,0,1-1.13,4.07c-1.2,2.19-3,4-5,4a3.33,3.33,0,0,1-1.18-.21,3.29,3.29,0,0,1-2.1-3.36c0-3.73,3.32-7,5.34-7.71a3.11,3.11,0,0,1,1.06-.18A1.94,1.94,0,0,1,264.82,106.14Zm-1.13,6.31a9.14,9.14,0,0,0,1.2-4.14c0-.85-.18-1.41-.55-1.56-.78-.28-2.87.88-4.47,3.34a7.82,7.82,0,0,0-1.29,4.07c0,1.24.44,1.93,1.11,1.93C260.79,116.1,262.44,114.76,263.69,112.46Z"/><path class="cls-1" d="M274.42,116.9c-1.1-1.45-1.95-2.58-2.65-3.38-.44.87-.9,1.87-1.43,3.18q-.19.5-.58.11a1.3,1.3,0,0,1-.34-.94,3.39,3.39,0,0,1,.12-.88,35,35,0,0,1,3.55-7.18,1.32,1.32,0,0,1-1-.73c-.14-.25-.05-.39.32-.44a12,12,0,0,0,2-.51,7.84,7.84,0,0,1,1.95-.42,2.17,2.17,0,0,1,2.25,1.47,3,3,0,0,1-.55,3.1,8.71,8.71,0,0,1-4.65,2.79,13.53,13.53,0,0,1,1.57,2.26,2.05,2.05,0,0,1,.25.92,1.19,1.19,0,0,1-.18.6C274.82,117.14,274.63,117.18,274.42,116.9Zm.16-9.2a4.75,4.75,0,0,1-.67,1.95c-.48.88-.92,1.63-1.24,2.18,3.54-.9,5.27-3.24,4.81-4.4a.53.53,0,0,0-.57-.37,6.47,6.47,0,0,0-1.64.42Z"/><path class="cls-1" d="M282.26,115.45a15.74,15.74,0,0,1,2.35-.39,1.52,1.52,0,0,1,1.72.85c.09.21.05.39-.35.39a19.56,19.56,0,0,0-3.73.69c-.51.12-.74.12-1-.23a4.27,4.27,0,0,1-.48-.76,1.36,1.36,0,0,1,.05-1.08,64.23,64.23,0,0,1,4.86-8.95c.28-.39.5-.27.67.05a1.69,1.69,0,0,1,.16.73,3.9,3.9,0,0,1-.6,1.84C284.38,111.39,283.23,113.38,282.26,115.45Z"/><path class="cls-1" d="M290.55,114a31.43,31.43,0,0,1,3.13-6,1.31,1.31,0,0,1-1.06-.78c-.09-.27-.05-.41.32-.46a5.78,5.78,0,0,0,1.64-.53,6.58,6.58,0,0,1,1.61-.51,2.63,2.63,0,0,1,2.79,1.57,3.73,3.73,0,0,1,.41,1.77c0,2.85-2.81,6.51-6.7,7.82a1.78,1.78,0,0,1-.58.11c-.57,0-.9-.3-1.34-.87a1.65,1.65,0,0,1-.46-1A3.87,3.87,0,0,1,290.55,114Zm4.51-6.23a3.21,3.21,0,0,1-.5,1.82,28.07,28.07,0,0,0-2.78,5.45,1.81,1.81,0,0,0-.09.51c0,.16.09.19.27.12,3.91-1.49,6.08-5.18,6.08-7.29a1.84,1.84,0,0,0-.21-1,.78.78,0,0,0-.65-.39A9.17,9.17,0,0,0,295.07,107.79Z"/><path class="cls-1" d="M309.43,114.86a48.87,48.87,0,0,1,3.86-7.36,1.36,1.36,0,0,1-.67-.9c-.05-.23.05-.34.39-.34a14.81,14.81,0,0,0,2.64-.25,10.5,10.5,0,0,1,1.63-.18,1.54,1.54,0,0,1,1.59,1c.09.19,0,.39-.37.39a19.19,19.19,0,0,0-3.47.48c-.58,1-1.27,2.19-2.1,3.71.34-.05.58-.07.85-.09,1-.07,1.49.3,1.64.87.07.25,0,.41-.35.44a21.15,21.15,0,0,0-3,.48c-.65,1.27-1.17,2.37-1.79,3.7a.38.38,0,0,1-.6.12,1.13,1.13,0,0,1-.41-1A3.78,3.78,0,0,1,309.43,114.86Z"/><path class="cls-1" d="M324.35,115.2a10,10,0,0,1,.05-1.18l-1.24.12a16,16,0,0,1-1.89.12c-.48.83-.87,1.72-1.27,2.44-.21.37-.51.3-.64.05a1.31,1.31,0,0,1-.21-.65,3.25,3.25,0,0,1,.28-1.2,9.41,9.41,0,0,1,.42-.94,1.74,1.74,0,0,1-.53-.58c-.14-.34-.07-.44.39-.37.25,0,.39.05.64.07a32.56,32.56,0,0,1,5.62-7.3c.39-.32.65-.3.92.05a2.89,2.89,0,0,1,.41.73,1.57,1.57,0,0,1,.14.62,1.94,1.94,0,0,1-.14.73,41.31,41.31,0,0,0-1.24,5,1.36,1.36,0,0,1,.78.92c.09.28,0,.35-.35.3l-.62-.11c-.11.88-.19,1.79-.23,2.65,0,.32-.23.39-.55.25S324.37,116.22,324.35,115.2Zm1.24-7a50.37,50.37,0,0,0-3.52,4.79c.35,0,.71-.07,1-.12.6-.07,1-.14,1.47-.16A28,28,0,0,1,325.59,108.21Z"/><path class="cls-1" d="M333.6,114.74a45.08,45.08,0,0,1,1.24-4.74,51.57,51.57,0,0,0-3.91,6.86c-.11.25-.37.3-.6.07A1.22,1.22,0,0,1,330,116a3,3,0,0,1,.25-1.11,60,60,0,0,1,5.36-8.9.52.52,0,0,1,.83-.12,1.82,1.82,0,0,1,.73,1.43,4.66,4.66,0,0,1-.25,1.27c-.55,1.59-.9,2.67-1.54,5,1.86-2.81,3.75-4.55,5.71-7.66.23-.37.46-.39.8-.07a1.75,1.75,0,0,1,.51,1.22,3.47,3.47,0,0,1-.42,1.45,68.73,68.73,0,0,0-3.84,8.26c-.12.35-.28.35-.57.11a1.28,1.28,0,0,1-.41-1,3.81,3.81,0,0,1,.14-1v0a34,34,0,0,1,1.95-4.46,53.45,53.45,0,0,0-4.32,6.28c-.19.35-.35.35-.62.16a1.87,1.87,0,0,1-.78-1.59A3.94,3.94,0,0,1,333.6,114.74Z"/><path class="cls-1" d="M352.75,106.14a2.87,2.87,0,0,1,1.61,2.85,9,9,0,0,1-1.13,4.07c-1.2,2.19-3,4-5,4a3.33,3.33,0,0,1-1.18-.21,3.29,3.29,0,0,1-2.1-3.36c0-3.73,3.32-7,5.34-7.71a3.11,3.11,0,0,1,1.06-.18A1.94,1.94,0,0,1,352.75,106.14Zm-1.13,6.31a9.14,9.14,0,0,0,1.2-4.14c0-.85-.18-1.41-.55-1.56-.78-.28-2.87.88-4.47,3.34a7.82,7.82,0,0,0-1.29,4.07c0,1.24.44,1.93,1.11,1.93C348.72,116.1,350.36,114.76,351.62,112.46Z"/><path class="cls-1" d="M358.85,116.93a2.21,2.21,0,0,1-1.43-2.19,4.65,4.65,0,0,1,.12-1.06c.48-1.93,2.48-5.24,4.07-7.68.25-.35.53-.3.74,0a1.45,1.45,0,0,1,.23.8,3.83,3.83,0,0,1-.55,1.73c-.85,1.57-2.55,4.21-3,6a4.15,4.15,0,0,0-.12.83c0,.58.27.83.65.83.9,0,2.07-1.4,3.11-3.45,1-1.86,2.88-5.31,3.84-6.83.23-.37.51-.3.73,0a1.57,1.57,0,0,1,.18.73,3.7,3.7,0,0,1-.39,1.52,59.12,59.12,0,0,1-3.94,7,4,4,0,0,1-3.18,1.89A2.65,2.65,0,0,1,358.85,116.93Z"/><path class="cls-1" d="M368.73,114.17a2.4,2.4,0,0,1,.55-.05,2.18,2.18,0,0,1,1.38.44,5.41,5.41,0,0,0,2.88,1.45,1.35,1.35,0,0,0,.94-.28.48.48,0,0,0,0-.74c-1.27-1-3.73-1.95-3.73-3.75,0-2.41,2.76-4.51,4.35-5.18a3.18,3.18,0,0,1,1.36-.3,1.63,1.63,0,0,1,1.08.37,3.33,3.33,0,0,1,.94,1.52,2.4,2.4,0,0,1-.53,1.82,22.33,22.33,0,0,0-1.18,1.91c-.16.28-.35.42-.69.07a1.3,1.3,0,0,1-.42-1,3.48,3.48,0,0,1,.81-1.84c.44-.65.92-1.43.67-1.61-.65-.48-4.53,2.12-4.62,4.16-.05,1.17,2.37,2.18,3.06,2.67a1.15,1.15,0,0,1,.53.9,2.36,2.36,0,0,1-.69,1.41,3.16,3.16,0,0,1-2.39.9,6.2,6.2,0,0,1-4.4-2.33C368.36,114.45,368.48,114.26,368.73,114.17Z"/></svg>